<?xml version="1.0" encoding="UTF-8"?>
<svg id="varfoot-logo" xmlns="http://www.w3.org/2000/svg" width="1254" height="1254" viewBox="0 0 1254 1254" preserveAspectRatio="xMidYMid meet" role="img" aria-labelledby="title desc">
  <title id="title">VarFoot V cleat logo</title>
  <desc id="desc">A 1:1 vector recreation of a dark navy V shaped like a soccer cleat with a neon green inner accent.</desc>
  <defs>
    <path id="shape-left-v" d="M 305.0 310.0 L 302.0 314.0 L 303.0 316.0 L 303.0 318.0 L 531.0 774.0 L 533.0 776.0 L 579.0 868.0 L 580.0 863.0 L 583.0 858.0 L 583.0 856.0 L 585.0 853.0 L 585.0 851.0 L 587.0 848.0 L 587.0 846.0 L 589.0 843.0 L 589.0 841.0 L 591.0 838.0 L 591.0 836.0 L 594.0 831.0 L 594.0 829.0 L 596.0 826.0 L 596.0 824.0 L 599.0 819.0 L 599.0 817.0 L 601.0 815.0 L 602.0 815.0 L 601.0 814.0 L 602.0 812.0 L 603.0 813.0 L 602.0 811.0 L 603.0 810.0 L 604.0 811.0 L 603.0 810.0 L 603.0 808.0 L 604.0 807.0 L 605.0 802.0 L 607.0 799.0 L 607.0 797.0 L 608.0 796.0 L 608.0 794.0 L 609.0 793.0 L 609.0 791.0 L 610.0 790.0 L 611.0 785.0 L 615.0 777.0 L 615.0 775.0 L 616.0 774.0 L 616.0 772.0 L 617.0 771.0 L 618.0 766.0 L 620.0 763.0 L 621.0 758.0 L 623.0 755.0 L 623.0 753.0 L 624.0 752.0 L 624.0 750.0 L 625.0 749.0 L 625.0 747.0 L 626.0 746.0 L 627.0 741.0 L 629.0 738.0 L 629.0 736.0 L 631.0 733.0 L 631.0 731.0 L 632.0 730.0 L 633.0 725.0 L 635.0 722.0 L 636.0 717.0 L 638.0 714.0 L 639.0 709.0 L 641.0 706.0 L 641.0 704.0 L 642.0 703.0 L 642.0 701.0 L 643.0 700.0 L 644.0 695.0 L 646.0 692.0 L 646.0 690.0 L 648.0 686.0 L 648.0 683.0 L 647.0 682.0 L 647.0 679.0 L 628.0 642.0 L 628.0 640.0 L 609.0 603.0 L 609.0 601.0 L 593.0 570.0 L 593.0 568.0 L 576.0 535.0 L 576.0 533.0 L 560.0 502.0 L 560.0 500.0 L 541.0 463.0 L 541.0 461.0 L 528.0 436.0 L 528.0 434.0 L 512.0 403.0 L 512.0 401.0 L 486.0 349.0 L 486.0 347.0 L 472.0 320.0 L 472.0 318.0 L 467.0 312.0 L 463.0 310.0 Z"/>
<path id="shape-boot-main" d="M 853.0 326.0 L 851.0 326.0 L 850.0 325.0 L 848.0 325.0 L 847.0 324.0 L 845.0 324.0 L 844.0 323.0 L 842.0 323.0 L 838.0 321.0 L 831.0 320.0 L 830.0 319.0 L 826.0 319.0 L 825.0 318.0 L 816.0 318.0 L 816.0 323.0 L 818.0 327.0 L 818.0 330.0 L 819.0 331.0 L 819.0 334.0 L 820.0 335.0 L 820.0 342.0 L 821.0 343.0 L 821.0 361.0 L 820.0 362.0 L 820.0 369.0 L 819.0 370.0 L 819.0 375.0 L 818.0 376.0 L 818.0 379.0 L 817.0 380.0 L 817.0 383.0 L 816.0 384.0 L 816.0 387.0 L 815.0 388.0 L 815.0 390.0 L 814.0 391.0 L 813.0 396.0 L 811.0 399.0 L 811.0 401.0 L 808.0 407.0 L 808.0 409.0 L 804.0 416.0 L 804.0 418.0 L 789.0 448.0 L 787.0 450.0 L 771.0 483.0 L 769.0 485.0 L 769.0 487.0 L 767.0 489.0 L 760.0 503.0 L 760.0 505.0 L 759.0 506.0 L 759.0 509.0 L 758.0 510.0 L 758.0 525.0 L 757.0 526.0 L 757.0 543.0 L 756.0 544.0 L 756.0 554.0 L 755.0 555.0 L 755.0 563.0 L 754.0 564.0 L 754.0 571.0 L 753.0 572.0 L 753.0 577.0 L 752.0 578.0 L 752.0 583.0 L 751.0 584.0 L 751.0 589.0 L 750.0 590.0 L 750.0 594.0 L 749.0 595.0 L 749.0 599.0 L 748.0 600.0 L 747.0 609.0 L 746.0 610.0 L 746.0 613.0 L 745.0 614.0 L 745.0 618.0 L 743.0 622.0 L 743.0 626.0 L 742.0 627.0 L 742.0 630.0 L 741.0 631.0 L 741.0 634.0 L 740.0 635.0 L 740.0 638.0 L 739.0 639.0 L 738.0 646.0 L 736.0 650.0 L 736.0 653.0 L 735.0 654.0 L 735.0 657.0 L 734.0 658.0 L 734.0 660.0 L 732.0 664.0 L 732.0 667.0 L 731.0 668.0 L 731.0 670.0 L 729.0 674.0 L 729.0 677.0 L 728.0 678.0 L 728.0 680.0 L 727.0 681.0 L 727.0 683.0 L 726.0 684.0 L 725.0 689.0 L 723.0 692.0 L 723.0 694.0 L 722.0 695.0 L 721.0 700.0 L 719.0 703.0 L 719.0 705.0 L 717.0 708.0 L 717.0 710.0 L 713.0 718.0 L 713.0 720.0 L 710.0 725.0 L 710.0 727.0 L 707.0 732.0 L 707.0 734.0 L 704.0 739.0 L 704.0 741.0 L 701.0 746.0 L 701.0 748.0 L 696.0 757.0 L 696.0 759.0 L 669.0 813.0 L 667.0 815.0 L 656.0 837.0 L 654.0 839.0 L 646.0 855.0 L 644.0 857.0 L 637.0 871.0 L 635.0 873.0 L 633.0 878.0 L 631.0 880.0 L 630.0 883.0 L 628.0 885.0 L 626.0 889.0 L 626.0 893.0 L 630.0 896.0 L 639.0 896.0 L 643.0 894.0 L 657.0 880.0 L 657.0 879.0 L 668.0 868.0 L 668.0 867.0 L 676.0 859.0 L 676.0 858.0 L 691.0 841.0 L 691.0 840.0 L 694.0 837.0 L 694.0 836.0 L 698.0 832.0 L 698.0 831.0 L 705.0 823.0 L 707.0 819.0 L 716.0 808.0 L 718.0 804.0 L 721.0 801.0 L 721.0 800.0 L 723.0 798.0 L 723.0 797.0 L 725.0 795.0 L 725.0 794.0 L 727.0 792.0 L 729.0 788.0 L 732.0 785.0 L 735.0 779.0 L 743.0 768.0 L 747.0 760.0 L 749.0 758.0 L 752.0 752.0 L 754.0 750.0 L 755.0 747.0 L 757.0 745.0 L 763.0 733.0 L 765.0 731.0 L 768.0 724.0 L 770.0 722.0 L 775.0 711.0 L 777.0 709.0 L 788.0 687.0 L 788.0 685.0 L 796.0 670.0 L 796.0 668.0 L 807.0 646.0 L 807.0 644.0 L 823.0 612.0 L 825.0 610.0 L 827.0 605.0 L 829.0 603.0 L 830.0 600.0 L 832.0 598.0 L 833.0 595.0 L 835.0 593.0 L 839.0 585.0 L 841.0 583.0 L 841.0 582.0 L 843.0 580.0 L 845.0 576.0 L 848.0 573.0 L 848.0 572.0 L 850.0 570.0 L 852.0 566.0 L 855.0 563.0 L 855.0 562.0 L 859.0 558.0 L 859.0 557.0 L 866.0 549.0 L 866.0 548.0 L 870.0 544.0 L 870.0 543.0 L 884.0 528.0 L 884.0 527.0 L 926.0 485.0 L 927.0 485.0 L 943.0 469.0 L 943.0 468.0 L 949.0 462.0 L 949.0 461.0 L 953.0 456.0 L 957.0 448.0 L 957.0 446.0 L 959.0 443.0 L 959.0 441.0 L 960.0 440.0 L 960.0 437.0 L 961.0 436.0 L 961.0 430.0 L 962.0 429.0 L 962.0 422.0 L 961.0 421.0 L 961.0 415.0 L 960.0 414.0 L 959.0 409.0 L 955.0 401.0 L 953.0 399.0 L 953.0 398.0 L 951.0 396.0 L 949.0 392.0 L 944.0 387.0 L 944.0 386.0 L 935.0 377.0 L 934.0 377.0 L 934.0 378.0 L 931.0 381.0 L 929.0 385.0 L 923.0 392.0 L 921.0 396.0 L 918.0 399.0 L 916.0 403.0 L 913.0 406.0 L 913.0 407.0 L 910.0 410.0 L 910.0 411.0 L 907.0 414.0 L 907.0 415.0 L 904.0 418.0 L 904.0 419.0 L 900.0 423.0 L 900.0 424.0 L 897.0 427.0 L 897.0 428.0 L 894.0 431.0 L 894.0 432.0 L 890.0 436.0 L 890.0 437.0 L 886.0 441.0 L 886.0 442.0 L 878.0 451.0 L 878.0 452.0 L 873.0 457.0 L 873.0 458.0 L 868.0 463.0 L 868.0 464.0 L 853.0 480.0 L 853.0 481.0 L 822.0 512.0 L 821.0 512.0 L 815.0 518.0 L 814.0 518.0 L 812.0 520.0 L 811.0 519.0 L 811.0 518.0 L 816.0 512.0 L 816.0 511.0 L 818.0 509.0 L 818.0 508.0 L 820.0 506.0 L 820.0 505.0 L 822.0 503.0 L 822.0 502.0 L 824.0 500.0 L 826.0 496.0 L 829.0 493.0 L 829.0 492.0 L 831.0 490.0 L 831.0 489.0 L 833.0 487.0 L 833.0 486.0 L 835.0 484.0 L 835.0 483.0 L 837.0 481.0 L 837.0 480.0 L 839.0 478.0 L 839.0 477.0 L 841.0 475.0 L 841.0 474.0 L 843.0 472.0 L 843.0 471.0 L 845.0 469.0 L 845.0 468.0 L 847.0 466.0 L 849.0 462.0 L 852.0 459.0 L 855.0 453.0 L 857.0 451.0 L 859.0 447.0 L 862.0 444.0 L 862.0 443.0 L 864.0 441.0 L 864.0 440.0 L 866.0 438.0 L 866.0 437.0 L 874.0 426.0 L 875.0 423.0 L 878.0 420.0 L 878.0 419.0 L 880.0 417.0 L 880.0 416.0 L 882.0 414.0 L 882.0 413.0 L 884.0 411.0 L 884.0 410.0 L 886.0 408.0 L 886.0 407.0 L 888.0 405.0 L 888.0 404.0 L 890.0 402.0 L 890.0 401.0 L 892.0 399.0 L 892.0 398.0 L 894.0 396.0 L 894.0 395.0 L 896.0 393.0 L 896.0 392.0 L 898.0 390.0 L 898.0 389.0 L 900.0 387.0 L 900.0 386.0 L 906.0 378.0 L 907.0 375.0 L 909.0 373.0 L 909.0 372.0 L 911.0 370.0 L 911.0 369.0 L 913.0 367.0 L 913.0 366.0 L 916.0 362.0 L 915.0 360.0 L 911.0 358.0 L 908.0 355.0 L 907.0 355.0 L 899.0 349.0 L 889.0 344.0 L 887.0 342.0 L 865.0 331.0 L 863.0 331.0 Z"/>
<path id="shape-boot-studs" d="M 953.0 479.0 L 951.0 480.0 L 940.0 491.0 L 939.0 493.0 L 938.0 493.0 L 938.0 494.0 L 921.0 511.0 L 921.0 512.0 L 903.0 531.0 L 903.0 532.0 L 896.0 539.0 L 896.0 540.0 L 881.0 557.0 L 881.0 558.0 L 877.0 562.0 L 877.0 563.0 L 874.0 566.0 L 874.0 567.0 L 870.0 571.0 L 870.0 572.0 L 861.0 583.0 L 861.0 584.0 L 859.0 586.0 L 859.0 587.0 L 857.0 589.0 L 857.0 590.0 L 855.0 592.0 L 855.0 593.0 L 853.0 595.0 L 853.0 596.0 L 851.0 598.0 L 851.0 599.0 L 843.0 610.0 L 841.0 615.0 L 839.0 617.0 L 834.0 627.0 L 832.0 629.0 L 819.0 655.0 L 819.0 657.0 L 815.0 664.0 L 815.0 666.0 L 812.0 671.0 L 812.0 673.0 L 809.0 678.0 L 809.0 680.0 L 803.0 692.0 L 803.0 694.0 L 787.0 726.0 L 785.0 728.0 L 782.0 735.0 L 780.0 737.0 L 778.0 742.0 L 776.0 744.0 L 774.0 749.0 L 772.0 751.0 L 771.0 754.0 L 769.0 756.0 L 768.0 759.0 L 766.0 761.0 L 762.0 769.0 L 756.0 777.0 L 755.0 780.0 L 753.0 782.0 L 753.0 783.0 L 751.0 785.0 L 751.0 786.0 L 749.0 788.0 L 749.0 789.0 L 747.0 791.0 L 747.0 792.0 L 745.0 794.0 L 743.0 798.0 L 740.0 801.0 L 740.0 802.0 L 738.0 804.0 L 736.0 808.0 L 733.0 811.0 L 733.0 812.0 L 730.0 815.0 L 728.0 819.0 L 725.0 822.0 L 725.0 823.0 L 722.0 826.0 L 722.0 827.0 L 719.0 830.0 L 719.0 831.0 L 716.0 834.0 L 716.0 835.0 L 713.0 838.0 L 713.0 839.0 L 709.0 843.0 L 709.0 844.0 L 706.0 847.0 L 706.0 848.0 L 698.0 857.0 L 698.0 858.0 L 693.0 863.0 L 693.0 864.0 L 689.0 868.0 L 689.0 869.0 L 683.0 875.0 L 683.0 876.0 L 679.0 880.0 L 679.0 881.0 L 674.0 886.0 L 675.0 888.0 L 677.0 887.0 L 679.0 887.0 L 680.0 886.0 L 687.0 885.0 L 688.0 886.0 L 690.0 886.0 L 691.0 887.0 L 693.0 887.0 L 694.0 888.0 L 696.0 888.0 L 697.0 889.0 L 699.0 889.0 L 703.0 891.0 L 707.0 891.0 L 709.0 890.0 L 721.0 878.0 L 722.0 878.0 L 725.0 874.0 L 725.0 872.0 L 723.0 869.0 L 723.0 867.0 L 717.0 855.0 L 717.0 852.0 L 726.0 842.0 L 726.0 841.0 L 731.0 836.0 L 731.0 835.0 L 735.0 831.0 L 739.0 831.0 L 740.0 832.0 L 742.0 832.0 L 743.0 833.0 L 748.0 834.0 L 751.0 836.0 L 753.0 836.0 L 757.0 838.0 L 760.0 838.0 L 762.0 837.0 L 762.0 836.0 L 773.0 824.0 L 774.0 822.0 L 774.0 820.0 L 772.0 816.0 L 769.0 813.0 L 768.0 810.0 L 760.0 799.0 L 760.0 796.0 L 762.0 794.0 L 765.0 788.0 L 768.0 785.0 L 768.0 784.0 L 770.0 782.0 L 770.0 781.0 L 772.0 779.0 L 774.0 775.0 L 776.0 773.0 L 779.0 772.0 L 780.0 773.0 L 782.0 773.0 L 783.0 774.0 L 785.0 774.0 L 786.0 775.0 L 788.0 775.0 L 792.0 777.0 L 795.0 777.0 L 799.0 779.0 L 803.0 779.0 L 806.0 776.0 L 806.0 775.0 L 810.0 770.0 L 811.0 767.0 L 815.0 762.0 L 816.0 760.0 L 816.0 756.0 L 813.0 753.0 L 813.0 752.0 L 810.0 749.0 L 810.0 748.0 L 801.0 737.0 L 799.0 733.0 L 799.0 731.0 L 800.0 730.0 L 801.0 723.0 L 802.0 722.0 L 803.0 717.0 L 805.0 714.0 L 805.0 712.0 L 806.0 711.0 L 807.0 706.0 L 809.0 703.0 L 809.0 701.0 L 811.0 698.0 L 811.0 696.0 L 814.0 691.0 L 814.0 689.0 L 818.0 682.0 L 818.0 680.0 L 825.0 666.0 L 827.0 664.0 L 829.0 659.0 L 831.0 657.0 L 833.0 652.0 L 835.0 650.0 L 836.0 647.0 L 838.0 645.0 L 838.0 644.0 L 840.0 642.0 L 840.0 641.0 L 842.0 639.0 L 844.0 635.0 L 847.0 632.0 L 847.0 631.0 L 850.0 628.0 L 850.0 627.0 L 854.0 623.0 L 854.0 622.0 L 859.0 617.0 L 859.0 616.0 L 872.0 603.0 L 879.0 603.0 L 880.0 604.0 L 882.0 604.0 L 883.0 605.0 L 885.0 605.0 L 886.0 606.0 L 888.0 606.0 L 889.0 607.0 L 891.0 607.0 L 892.0 608.0 L 894.0 608.0 L 897.0 610.0 L 900.0 610.0 L 901.0 611.0 L 903.0 610.0 L 907.0 606.0 L 907.0 605.0 L 915.0 596.0 L 916.0 594.0 L 916.0 591.0 L 913.0 587.0 L 913.0 586.0 L 911.0 584.0 L 911.0 583.0 L 909.0 581.0 L 909.0 580.0 L 907.0 578.0 L 906.0 575.0 L 904.0 573.0 L 902.0 569.0 L 902.0 567.0 L 910.0 558.0 L 910.0 557.0 L 928.0 539.0 L 932.0 539.0 L 938.0 542.0 L 940.0 544.0 L 945.0 546.0 L 947.0 548.0 L 951.0 548.0 L 953.0 547.0 L 955.0 542.0 L 957.0 540.0 L 959.0 535.0 L 961.0 533.0 L 967.0 521.0 L 967.0 519.0 L 954.0 494.0 L 954.0 492.0 L 953.0 491.0 L 953.0 488.0 L 954.0 487.0 L 954.0 480.0 Z"/>
<path id="shape-green-blade" d="M 733.0 553.0 L 731.0 555.0 L 729.0 559.0 L 729.0 561.0 L 711.0 597.0 L 711.0 599.0 L 697.0 627.0 L 697.0 629.0 L 688.0 646.0 L 688.0 648.0 L 681.0 661.0 L 681.0 663.0 L 674.0 676.0 L 674.0 678.0 L 655.0 715.0 L 655.0 717.0 L 653.0 719.0 L 639.0 748.0 L 637.0 750.0 L 630.0 765.0 L 628.0 767.0 L 623.0 778.0 L 621.0 780.0 L 621.0 782.0 L 619.0 784.0 L 615.0 793.0 L 613.0 795.0 L 611.0 800.0 L 609.0 802.0 L 603.0 815.0 L 600.0 817.0 L 600.0 819.0 L 597.0 824.0 L 597.0 826.0 L 595.0 829.0 L 595.0 831.0 L 592.0 836.0 L 592.0 838.0 L 590.0 841.0 L 590.0 843.0 L 588.0 846.0 L 588.0 848.0 L 586.0 851.0 L 586.0 853.0 L 584.0 856.0 L 584.0 858.0 L 581.0 863.0 L 581.0 865.0 L 580.0 866.0 L 580.0 869.0 L 582.0 873.0 L 584.0 875.0 L 585.0 878.0 L 587.0 880.0 L 589.0 884.0 L 593.0 888.0 L 597.0 890.0 L 599.0 890.0 L 602.0 888.0 L 607.0 878.0 L 609.0 876.0 L 611.0 871.0 L 613.0 869.0 L 618.0 859.0 L 620.0 857.0 L 627.0 843.0 L 629.0 841.0 L 637.0 825.0 L 639.0 823.0 L 643.0 814.0 L 645.0 812.0 L 645.0 810.0 L 647.0 808.0 L 658.0 785.0 L 660.0 783.0 L 662.0 779.0 L 662.0 777.0 L 677.0 748.0 L 677.0 746.0 L 680.0 741.0 L 680.0 739.0 L 685.0 730.0 L 685.0 728.0 L 687.0 725.0 L 687.0 723.0 L 693.0 711.0 L 694.0 706.0 L 696.0 703.0 L 696.0 701.0 L 700.0 693.0 L 700.0 691.0 L 701.0 690.0 L 702.0 685.0 L 704.0 682.0 L 704.0 680.0 L 705.0 679.0 L 705.0 677.0 L 706.0 676.0 L 706.0 674.0 L 707.0 673.0 L 707.0 671.0 L 708.0 670.0 L 708.0 668.0 L 710.0 664.0 L 710.0 661.0 L 712.0 657.0 L 712.0 654.0 L 713.0 653.0 L 713.0 651.0 L 715.0 647.0 L 715.0 644.0 L 717.0 640.0 L 717.0 637.0 L 718.0 636.0 L 718.0 633.0 L 719.0 632.0 L 719.0 629.0 L 720.0 628.0 L 720.0 625.0 L 721.0 624.0 L 721.0 621.0 L 722.0 620.0 L 722.0 616.0 L 723.0 615.0 L 723.0 612.0 L 724.0 611.0 L 724.0 608.0 L 725.0 607.0 L 725.0 603.0 L 726.0 602.0 L 726.0 597.0 L 727.0 596.0 L 727.0 593.0 L 728.0 592.0 L 728.0 586.0 L 729.0 585.0 L 729.0 581.0 L 730.0 580.0 L 730.0 575.0 L 731.0 574.0 L 731.0 569.0 L 732.0 568.0 L 732.0 562.0 L 733.0 561.0 Z"/>

    <clipPath id="clip-left-v"><use href="#shape-left-v"/></clipPath>
    <clipPath id="clip-boot-main"><use href="#shape-boot-main"/></clipPath>
    <clipPath id="clip-boot-studs"><use href="#shape-boot-studs"/></clipPath>
    <clipPath id="clip-green-blade"><use href="#shape-green-blade"/></clipPath>

    <linearGradient id="navy-left" gradientUnits="userSpaceOnUse" x1="302" y1="310" x2="650" y2="875">
      <stop offset="0" stop-color="#10283A"/>
      <stop offset="0.35" stop-color="#0B1E2D"/>
      <stop offset="0.72" stop-color="#071623"/>
      <stop offset="1" stop-color="#122B3D"/>
    </linearGradient>

    <linearGradient id="navy-boot" gradientUnits="userSpaceOnUse" x1="610" y1="315" x2="970" y2="900">
      <stop offset="0" stop-color="#0F293B"/>
      <stop offset="0.42" stop-color="#071826"/>
      <stop offset="0.78" stop-color="#0A1D2C"/>
      <stop offset="1" stop-color="#142F42"/>
    </linearGradient>

    <linearGradient id="navy-studs" gradientUnits="userSpaceOnUse" x1="690" y1="475" x2="960" y2="890">
      <stop offset="0" stop-color="#132E41"/>
      <stop offset="0.42" stop-color="#081927"/>
      <stop offset="0.84" stop-color="#0A1A27"/>
      <stop offset="1" stop-color="#1D3A4D"/>
    </linearGradient>

    <linearGradient id="green-accent" gradientUnits="userSpaceOnUse" x1="603" y1="888" x2="730" y2="550">
      <stop offset="0" stop-color="#6AC51E"/>
      <stop offset="0.34" stop-color="#87D824"/>
      <stop offset="0.68" stop-color="#A8E92E"/>
      <stop offset="1" stop-color="#C6F13A"/>
    </linearGradient>

    <linearGradient id="green-edge-light" gradientUnits="userSpaceOnUse" x1="585" y1="870" x2="735" y2="555">
      <stop offset="0" stop-color="#FFFFFF" stop-opacity="0"/>
      <stop offset="0.50" stop-color="#FFFFFF" stop-opacity="0.22"/>
      <stop offset="1" stop-color="#FFFFFF" stop-opacity="0.10"/>
    </linearGradient>

    <radialGradient id="navy-soft-sheen" gradientUnits="userSpaceOnUse" cx="535" cy="410" r="445">
      <stop offset="0" stop-color="#FFFFFF" stop-opacity="0.10"/>
      <stop offset="0.42" stop-color="#FFFFFF" stop-opacity="0.035"/>
      <stop offset="1" stop-color="#FFFFFF" stop-opacity="0"/>
    </radialGradient>

    <radialGradient id="right-sheen" gradientUnits="userSpaceOnUse" cx="845" cy="405" r="390">
      <stop offset="0" stop-color="#FFFFFF" stop-opacity="0.13"/>
      <stop offset="0.45" stop-color="#FFFFFF" stop-opacity="0.045"/>
      <stop offset="1" stop-color="#FFFFFF" stop-opacity="0"/>
    </radialGradient>

    <filter id="soft-logo-shadow" x="-20%" y="-20%" width="140%" height="150%" color-interpolation-filters="sRGB">
      <feDropShadow dx="0" dy="7" stdDeviation="10" flood-color="#07111C" flood-opacity="0.18"/>
      <feDropShadow dx="0" dy="1.5" stdDeviation="2.25" flood-color="#000000" flood-opacity="0.11"/>
    </filter>

    <filter id="ambient-blur" x="-30%" y="-30%" width="160%" height="165%" color-interpolation-filters="sRGB">
      <feGaussianBlur stdDeviation="14"/>
    </filter>

    <filter id="micro-texture" x="-8%" y="-8%" width="116%" height="116%" color-interpolation-filters="sRGB">
      <feTurbulence type="fractalNoise" baseFrequency="0.72" numOctaves="2" seed="14" result="noise"/>
      <feColorMatrix in="noise" type="matrix" values="0 0 0 0 1  0 0 0 0 1  0 0 0 0 1  0 0 0 .23 0"/>
    </filter>
  </defs>

  <rect width="1254" height="1254" rx="240" fill="#0D1C28"/>

  <!-- soft ambient base shadow matching the original rendered mark -->
  <g opacity="0.30" filter="url(#ambient-blur)" transform="translate(0 5)">
    <use href="#shape-left-v" fill="#0B1520"/>
    <use href="#shape-green-blade" fill="#5FAE1C"/>
    <use href="#shape-boot-studs" fill="#0B1520"/>
    <use href="#shape-boot-main" fill="#0B1520"/>
  </g>

  <g id="mark" filter="url(#soft-logo-shadow)" shape-rendering="geometricPrecision">
    <use href="#shape-left-v" fill="url(#navy-left)"/>
    <use href="#shape-green-blade" fill="url(#green-accent)"/>
    <use href="#shape-boot-studs" fill="url(#navy-studs)"/>
    <use href="#shape-boot-main" fill="url(#navy-boot)"/>

    <!-- restrained bevel/gloss layers for a realistic rendered SVG without raster embedding -->
    <use href="#shape-left-v" fill="url(#navy-soft-sheen)" opacity="0.78"/>
    <use href="#shape-boot-studs" fill="url(#right-sheen)" opacity="0.68"/>
    <use href="#shape-boot-main" fill="url(#right-sheen)" opacity="0.72"/>
    <use href="#shape-green-blade" fill="url(#green-edge-light)" opacity="0.88"/>

    <g opacity="0.055">
      <g clip-path="url(#clip-left-v)"><rect x="250" y="250" width="500" height="700" filter="url(#micro-texture)"/></g>
      <g clip-path="url(#clip-boot-main)"><rect x="560" y="250" width="470" height="720" filter="url(#micro-texture)"/></g>
      <g clip-path="url(#clip-boot-studs)"><rect x="620" y="430" width="410" height="520" filter="url(#micro-texture)"/></g>
      <g clip-path="url(#clip-green-blade)"><rect x="540" y="520" width="230" height="420" filter="url(#micro-texture)"/></g>
    </g>
  </g>
</svg>
