<svg width="360" height="240" viewBox="0 0 360 240" fill="none" xmlns="http://www.w3.org/2000/svg" role="img" aria-label="core plank rotation diagram">
  <defs>
  <marker id="arrowGreen" viewBox="0 0 10 10" refX="8" refY="5" markerWidth="7" markerHeight="7" orient="auto-start-reverse">
    <path d="M0,0 L10,5 L0,10 Z" fill="#39ff73" />
  </marker>
  <marker id="arrowAmber" viewBox="0 0 10 10" refX="8" refY="5" markerWidth="7" markerHeight="7" orient="auto-start-reverse">
    <path d="M0,0 L10,5 L0,10 Z" fill="#ff9d4d" />
  </marker>
  <marker id="arrowMute" viewBox="0 0 10 10" refX="8" refY="5" markerWidth="6" markerHeight="6" orient="auto-start-reverse">
    <path d="M0,0 L10,5 L0,10 Z" fill="#9aa1a9" />
  </marker></defs>
  <rect x="0.5" y="0.5" width="359" height="239" rx="16" fill="#101216" stroke="#262a30" />
  <rect x="14" y="14" width="332" height="184" rx="12" fill="#15181c" stroke="#262a30" stroke-width="1" />
  <g>
      
      <g>
      <line x1="128" y1="170" x2="166" y2="170" stroke="#c7cbd1" stroke-width="2.6" stroke-linecap="round" />
      <line x1="128" y1="170" x2="124" y2="180" stroke="#c7cbd1" stroke-width="2.4" stroke-linecap="round" />
      <line x1="166" y1="170" x2="172" y2="180" stroke="#c7cbd1" stroke-width="2.4" stroke-linecap="round" />
      <line x1="134" y1="170" x2="131" y2="180" stroke="#c7cbd1" stroke-width="2.4" stroke-linecap="round" />
      <circle cx="171" cy="164" r="6" fill="#c7cbd1" />
      <text x="146" y="194" text-anchor="middle" fill="#9aa1a9" font-family="Nunito, sans-serif" font-size="9" font-weight="800">ROTATE — HIPS STAY HIGH</text>
    </g>
      
      <g>
    <rect x="130" y="57" width="153.29999999999998" height="19" rx="9.5" fill="#39ff73" fill-opacity="0.14" stroke="#39ff73" stroke-opacity="0.5" />
    <text x="206.64999999999998" y="71" text-anchor="middle" fill="#39ff73" font-family="Nunito, sans-serif" font-size="10" font-weight="800" letter-spacing="0.03em">ROTATE — HIPS STAY HIGH</text>
  </g>
    </g>
  <text x="180" y="220" text-anchor="middle" fill="#c7cbd1" font-family="Nunito, -apple-system, sans-serif" font-size="12" font-weight="800" letter-spacing="0.04em">ROTATE — HIPS STAY HIGH</text>
</svg>