<svg width="360" height="240" viewBox="0 0 360 240" fill="none" xmlns="http://www.w3.org/2000/svg" role="img" aria-label="driven ball switch diagram">
  <defs>
  <marker id="arrowGreen" viewBox="0 0 10 10" refX="8" refY="5" markerWidth="7" markerHeight="7" orient="auto-start-reverse">
    <path d="M0,0 L10,5 L0,10 Z" fill="#39ff73" />
  </marker>
  <marker id="arrowAmber" viewBox="0 0 10 10" refX="8" refY="5" markerWidth="7" markerHeight="7" orient="auto-start-reverse">
    <path d="M0,0 L10,5 L0,10 Z" fill="#ff9d4d" />
  </marker>
  <marker id="arrowMute" viewBox="0 0 10 10" refX="8" refY="5" markerWidth="6" markerHeight="6" orient="auto-start-reverse">
    <path d="M0,0 L10,5 L0,10 Z" fill="#9aa1a9" />
  </marker></defs>
  <rect x="0.5" y="0.5" width="359" height="239" rx="16" fill="#101216" stroke="#262a30" />
  <rect x="14" y="14" width="332" height="184" rx="12" fill="#15181c" stroke="#262a30" stroke-width="1" />
  <g>
      <g>
    <path d="M248 134 L253.5 150 L242.5 150 Z" fill="#ff9d4d" opacity="0.92" />
    <rect x="241" y="150" width="14" height="2.4" rx="1.2" fill="#ff9d4d" opacity="0.6" />
  </g><g>
    <path d="M274 134 L279.5 150 L268.5 150 Z" fill="#ff9d4d" opacity="0.92" />
    <rect x="267" y="150" width="14" height="2.4" rx="1.2" fill="#ff9d4d" opacity="0.6" />
  </g>
      <line x1="254" y1="148" x2="268" y2="148" stroke="#39ff73" stroke-width="1.6" stroke-dasharray="3 3" />
      <g>
    <circle cx="70" cy="139" r="6.4" fill="#c7cbd1" />
    
      <line x1="70" y1="144" x2="70" y2="158" stroke="#c7cbd1" stroke-width="2.4" stroke-linecap="round" />
      <line x1="70" y1="149" x2="77" y2="156" stroke="#c7cbd1" stroke-width="2.2" stroke-linecap="round" />
      <line x1="70" y1="158" x2="65" y2="172" stroke="#c7cbd1" stroke-width="2.4" stroke-linecap="round" />
      <line x1="70" y1="158" x2="77" y2="172" stroke="#c7cbd1" stroke-width="2.4" stroke-linecap="round" />
    <text x="70" y="184" text-anchor="middle" fill="#9aa1a9" font-family="Nunito, sans-serif" font-size="9" font-weight="800">You</text>
  </g>
      <g>
    <circle cx="92" cy="172" r="6.5" fill="#c7cbd1" />
    <path d="M88.75 170.7 l3.25 -2.9250000000000003 l3.25 2.9250000000000003 l-1.3 3.575 h-3.9 Z" fill="#101216" opacity="0.55" />
  </g>
      <path d="M96 168 Q 178.5 186 261 148" stroke="#39ff73" stroke-width="2.2" fill="none" stroke-linecap="round"  marker-end="url(#arrowGreen)" />
      <g>
    <line x1="56" y1="196" x2="261" y2="196" stroke="#4a4f57" stroke-width="1.4" stroke-dasharray="2 3" />
    <line x1="56" y1="192" x2="56" y2="200" stroke="#4a4f57" stroke-width="1.4" />
    <line x1="261" y1="192" x2="261" y2="200" stroke="#4a4f57" stroke-width="1.4" />
    <text x="158.5" y="188" text-anchor="middle" fill="#9aa1a9" font-family="'IBM Plex Mono', monospace" font-size="10" font-weight="600">25 big steps</text>
  </g>
      <g>
    <rect x="150" y="57" width="147.2" height="19" rx="9.5" fill="#39ff73" fill-opacity="0.14" stroke="#39ff73" stroke-opacity="0.5" />
    <text x="223.6" y="71" text-anchor="middle" fill="#39ff73" font-family="Nunito, sans-serif" font-size="10" font-weight="800" letter-spacing="0.03em">DRIVEN — ON THE GROUND</text>
  </g>
    </g>
  <text x="180" y="220" text-anchor="middle" fill="#c7cbd1" font-family="Nunito, -apple-system, sans-serif" font-size="12" font-weight="800" letter-spacing="0.04em">DRIVEN BALL SWITCH</text>
</svg>