<svg width="360" height="240" viewBox="0 0 360 240" fill="none" xmlns="http://www.w3.org/2000/svg" role="img" aria-label="figure eight dribble diagram">
  <defs>
  <marker id="arrowGreen" viewBox="0 0 10 10" refX="8" refY="5" markerWidth="7" markerHeight="7" orient="auto-start-reverse">
    <path d="M0,0 L10,5 L0,10 Z" fill="#39ff73" />
  </marker>
  <marker id="arrowAmber" viewBox="0 0 10 10" refX="8" refY="5" markerWidth="7" markerHeight="7" orient="auto-start-reverse">
    <path d="M0,0 L10,5 L0,10 Z" fill="#ff9d4d" />
  </marker>
  <marker id="arrowMute" viewBox="0 0 10 10" refX="8" refY="5" markerWidth="6" markerHeight="6" orient="auto-start-reverse">
    <path d="M0,0 L10,5 L0,10 Z" fill="#9aa1a9" />
  </marker></defs>
  <rect x="0.5" y="0.5" width="359" height="239" rx="16" fill="#101216" stroke="#262a30" />
  <rect x="14" y="14" width="332" height="184" rx="12" fill="#15181c" stroke="#262a30" stroke-width="1" />
  <g>
      <g>
    <path d="M64 109.28 L69.06 124 L58.94 124 Z" fill="#ff9d4d" opacity="0.92" />
    <rect x="57.44" y="124" width="13.120000000000001" height="2.208" rx="1.2" fill="#ff9d4d" opacity="0.6" />
  </g><g>
    <path d="M296 109.28 L301.06 124 L290.94 124 Z" fill="#ff9d4d" opacity="0.92" />
    <rect x="289.44" y="124" width="13.120000000000001" height="2.208" rx="1.2" fill="#ff9d4d" opacity="0.6" />
  </g>
      <path d="M64 102 Q 296 124 296 146" stroke="#39ff73" stroke-width="2.2" fill="none" stroke-dasharray="5 4" marker-end="url(#arrowGreen)" />
      <g>
    <circle cx="46" cy="142" r="6.5" fill="#c7cbd1" />
    <path d="M42.75 140.7 l3.25 -2.9250000000000003 l3.25 2.9250000000000003 l-1.3 3.575 h-3.9 Z" fill="#101216" opacity="0.55" />
  </g>
      <g>
    <circle cx="46" cy="139" r="6.4" fill="#c7cbd1" />
    
      <line x1="46" y1="148" x2="44" y2="159" stroke="#c7cbd1" stroke-width="2.4" stroke-linecap="round" />
      <line x1="44" y1="153" x2="54" y2="150" stroke="#c7cbd1" stroke-width="2.2" stroke-linecap="round" />
      <line x1="44" y1="159" x2="37" y2="171" stroke="#c7cbd1" stroke-width="2.4" stroke-linecap="round" />
      <line x1="44" y1="159" x2="52" y2="172" stroke="#c7cbd1" stroke-width="2.4" stroke-linecap="round" />
    <text x="46" y="184" text-anchor="middle" fill="#9aa1a9" font-family="Nunito, sans-serif" font-size="9" font-weight="800">Start</text>
  </g>
      <g>
    <rect x="132" y="57" width="135" height="19" rx="9.5" fill="#39ff73" fill-opacity="0.14" stroke="#39ff73" stroke-opacity="0.5" />
    <text x="199.5" y="71" text-anchor="middle" fill="#39ff73" font-family="Nunito, sans-serif" font-size="10" font-weight="800" letter-spacing="0.03em">3 LOOPS — BALL CLOSE</text>
  </g>
    </g>
  <text x="180" y="220" text-anchor="middle" fill="#c7cbd1" font-family="Nunito, -apple-system, sans-serif" font-size="12" font-weight="800" letter-spacing="0.04em">3 LOOPS — BALL CLOSE</text>
</svg>