<svg width="360" height="240" viewBox="0 0 360 240" fill="none" xmlns="http://www.w3.org/2000/svg" role="img" aria-label="first time finish diagram">
  <defs>
  <marker id="arrowGreen" viewBox="0 0 10 10" refX="8" refY="5" markerWidth="7" markerHeight="7" orient="auto-start-reverse">
    <path d="M0,0 L10,5 L0,10 Z" fill="#39ff73" />
  </marker>
  <marker id="arrowAmber" viewBox="0 0 10 10" refX="8" refY="5" markerWidth="7" markerHeight="7" orient="auto-start-reverse">
    <path d="M0,0 L10,5 L0,10 Z" fill="#ff9d4d" />
  </marker>
  <marker id="arrowMute" viewBox="0 0 10 10" refX="8" refY="5" markerWidth="6" markerHeight="6" orient="auto-start-reverse">
    <path d="M0,0 L10,5 L0,10 Z" fill="#9aa1a9" />
  </marker></defs>
  <rect x="0.5" y="0.5" width="359" height="239" rx="16" fill="#101216" stroke="#262a30" />
  <rect x="14" y="14" width="332" height="184" rx="12" fill="#15181c" stroke="#262a30" stroke-width="1" />
  <g>
      <g>
    <rect x="230" y="78" width="86" height="60" fill="none" stroke="#c7cbd1" stroke-width="2.4" />
    <line x1="247.2" y1="78" x2="247.2" y2="138" stroke="#4a4f57" stroke-width="1" /><line x1="264.4" y1="78" x2="264.4" y2="138" stroke="#4a4f57" stroke-width="1" /><line x1="281.6" y1="78" x2="281.6" y2="138" stroke="#4a4f57" stroke-width="1" /><line x1="298.8" y1="78" x2="298.8" y2="138" stroke="#4a4f57" stroke-width="1" /><line x1="230" y1="93" x2="316" y2="93" stroke="#4a4f57" stroke-width="1" /><line x1="230" y1="108" x2="316" y2="108" stroke="#4a4f57" stroke-width="1" /><line x1="230" y1="123" x2="316" y2="123" stroke="#4a4f57" stroke-width="1" />
    <line x1="230" y1="138" x2="316" y2="138" stroke="#c7cbd1" stroke-width="2.4" />
  </g>
      <rect x="290" y="84" width="22" height="22" fill="#39ff73" fill-opacity="0.08" stroke="#39ff73" stroke-width="1.6" stroke-dasharray="5 4" rx="3" />
      <rect x="234" y="110" width="22" height="22" fill="#39ff73" fill-opacity="0.08" stroke="#39ff73" stroke-width="1.6" stroke-dasharray="5 4" rx="3" />
      <g>
    <rect x="60" y="96" width="14" height="60" fill="#101216" stroke="#9aa1a9" stroke-width="2" rx="2" />
    <line x1="60" y1="96" x2="74" y2="96" stroke="#4a4f57" stroke-width="1" /><line x1="63.5" y1="96" x2="63.5" y2="116" stroke="#4a4f57" stroke-width="1" /><line x1="67" y1="96" x2="67" y2="116" stroke="#4a4f57" stroke-width="1" /><line x1="70.5" y1="96" x2="70.5" y2="116" stroke="#4a4f57" stroke-width="1" /><line x1="60" y1="116" x2="74" y2="116" stroke="#4a4f57" stroke-width="1" /><line x1="61.75" y1="116" x2="61.75" y2="136" stroke="#4a4f57" stroke-width="1" /><line x1="65.25" y1="116" x2="65.25" y2="136" stroke="#4a4f57" stroke-width="1" /><line x1="68.75" y1="116" x2="68.75" y2="136" stroke="#4a4f57" stroke-width="1" /><line x1="72.25" y1="116" x2="72.25" y2="136" stroke="#4a4f57" stroke-width="1" /><line x1="60" y1="136" x2="74" y2="136" stroke="#4a4f57" stroke-width="1" /><line x1="63.5" y1="136" x2="63.5" y2="156" stroke="#4a4f57" stroke-width="1" /><line x1="67" y1="136" x2="67" y2="156" stroke="#4a4f57" stroke-width="1" /><line x1="70.5" y1="136" x2="70.5" y2="156" stroke="#4a4f57" stroke-width="1" />
  </g>
      <g>
    <circle cx="70" cy="147" r="6.4" fill="#c7cbd1" />
    
      <line x1="70" y1="152" x2="70" y2="166" stroke="#c7cbd1" stroke-width="2.4" stroke-linecap="round" />
      <line x1="70" y1="157" x2="77" y2="164" stroke="#c7cbd1" stroke-width="2.2" stroke-linecap="round" />
      <line x1="70" y1="166" x2="65" y2="180" stroke="#c7cbd1" stroke-width="2.4" stroke-linecap="round" />
      <line x1="70" y1="166" x2="77" y2="180" stroke="#c7cbd1" stroke-width="2.4" stroke-linecap="round" />
    <text x="70" y="192" text-anchor="middle" fill="#9aa1a9" font-family="Nunito, sans-serif" font-size="9" font-weight="800">ANGLED FEED</text>
  </g>
      <g>
    <circle cx="94" cy="176" r="6.5" fill="#c7cbd1" />
    <path d="M90.75 174.7 l3.25 -2.9250000000000003 l3.25 2.9250000000000003 l-1.3 3.575 h-3.9 Z" fill="#101216" opacity="0.55" />
  </g>
      <path d="M98 170 Q 198 142 298 94" stroke="#39ff73" stroke-width="2.2" fill="none" stroke-linecap="round"  marker-end="url(#arrowGreen)" />
      <g>
    <rect x="150" y="51" width="135" height="19" rx="9.5" fill="#39ff73" fill-opacity="0.14" stroke="#39ff73" stroke-opacity="0.5" />
    <text x="217.5" y="65" text-anchor="middle" fill="#39ff73" font-family="Nunito, sans-serif" font-size="10" font-weight="800" letter-spacing="0.03em">NO CONTROLLING TOUCH</text>
  </g>
    </g>
  <text x="180" y="220" text-anchor="middle" fill="#c7cbd1" font-family="Nunito, -apple-system, sans-serif" font-size="12" font-weight="800" letter-spacing="0.04em">NO CONTROLLING TOUCH</text>
</svg>