<svg width="360" height="240" viewBox="0 0 360 240" fill="none" xmlns="http://www.w3.org/2000/svg" role="img" aria-label="high ball drop dead diagram">
  <defs>
  <marker id="arrowGreen" viewBox="0 0 10 10" refX="8" refY="5" markerWidth="7" markerHeight="7" orient="auto-start-reverse">
    <path d="M0,0 L10,5 L0,10 Z" fill="#39ff73" />
  </marker>
  <marker id="arrowAmber" viewBox="0 0 10 10" refX="8" refY="5" markerWidth="7" markerHeight="7" orient="auto-start-reverse">
    <path d="M0,0 L10,5 L0,10 Z" fill="#ff9d4d" />
  </marker>
  <marker id="arrowMute" viewBox="0 0 10 10" refX="8" refY="5" markerWidth="6" markerHeight="6" orient="auto-start-reverse">
    <path d="M0,0 L10,5 L0,10 Z" fill="#9aa1a9" />
  </marker></defs>
  <rect x="0.5" y="0.5" width="359" height="239" rx="16" fill="#101216" stroke="#262a30" />
  <rect x="14" y="14" width="332" height="184" rx="12" fill="#15181c" stroke="#262a30" stroke-width="1" />
  <g>
      <g>
    <circle cx="110" cy="135" r="6.4" fill="#c7cbd1" />
    
      <line x1="110" y1="140" x2="110" y2="154" stroke="#c7cbd1" stroke-width="2.4" stroke-linecap="round" />
      <line x1="110" y1="145" x2="117" y2="152" stroke="#c7cbd1" stroke-width="2.2" stroke-linecap="round" />
      <line x1="110" y1="154" x2="105" y2="168" stroke="#c7cbd1" stroke-width="2.4" stroke-linecap="round" />
      <line x1="110" y1="154" x2="117" y2="168" stroke="#c7cbd1" stroke-width="2.4" stroke-linecap="round" />
    <text x="110" y="180" text-anchor="middle" fill="#9aa1a9" font-family="Nunito, sans-serif" font-size="9" font-weight="800">You</text>
  </g>
      <g>
    <circle cx="116" cy="60" r="7" fill="#c7cbd1" />
    <path d="M112.5 58.6 l3.5 -3.15 l3.5 3.15 l-1.4000000000000001 3.8500000000000005 h-4.2 Z" fill="#101216" opacity="0.55" />
  </g>
      <path d="M116 60 q 30 60 30 86" stroke="#39ff73" stroke-width="2.2" fill="none" stroke-dasharray="4 4" marker-end="url(#arrowGreen)" />
      <rect x="104" y="192" width="60" height="14" fill="#39ff73" fill-opacity="0.08" stroke="#39ff73" stroke-width="1.6" stroke-dasharray="5 4" rx="3" />
      <text x="134" y="202" text-anchor="middle" fill="#c7cbd1" font-family="'IBM Plex Mono', monospace" font-size="9" font-weight="700">FIRST BOUNCE</text>
      <g>
    <rect x="225" y="57" width="67.9" height="19" rx="9.5" fill="#39ff73" fill-opacity="0.14" stroke="#39ff73" stroke-opacity="0.5" />
    <text x="258.95" y="71" text-anchor="middle" fill="#39ff73" font-family="Nunito, sans-serif" font-size="10" font-weight="800" letter-spacing="0.03em">10 THROWS</text>
  </g>
      <path d="M146 64 Q 163 93 180 90" stroke="#ff9d4d" stroke-width="2.2" fill="none" stroke-linecap="round" stroke-dasharray="5 4" marker-end="url(#arrowAmber)" />
      <text x="202" y="86" fill="#9aa1a9" font-family="Nunito, sans-serif" font-size="9" font-weight="800">ABOVE HEAD HEIGHT</text>
    </g>
  <text x="180" y="220" text-anchor="middle" fill="#c7cbd1" font-family="Nunito, -apple-system, sans-serif" font-size="12" font-weight="800" letter-spacing="0.04em">10 THROWS</text>
</svg>