<svg width="360" height="240" viewBox="0 0 360 240" fill="none" xmlns="http://www.w3.org/2000/svg" role="img" aria-label="max pushups diagram">
  <defs>
  <marker id="arrowGreen" viewBox="0 0 10 10" refX="8" refY="5" markerWidth="7" markerHeight="7" orient="auto-start-reverse">
    <path d="M0,0 L10,5 L0,10 Z" fill="#39ff73" />
  </marker>
  <marker id="arrowAmber" viewBox="0 0 10 10" refX="8" refY="5" markerWidth="7" markerHeight="7" orient="auto-start-reverse">
    <path d="M0,0 L10,5 L0,10 Z" fill="#ff9d4d" />
  </marker>
  <marker id="arrowMute" viewBox="0 0 10 10" refX="8" refY="5" markerWidth="6" markerHeight="6" orient="auto-start-reverse">
    <path d="M0,0 L10,5 L0,10 Z" fill="#9aa1a9" />
  </marker></defs>
  <rect x="0.5" y="0.5" width="359" height="239" rx="16" fill="#101216" stroke="#262a30" />
  <rect x="14" y="14" width="332" height="184" rx="12" fill="#15181c" stroke="#262a30" stroke-width="1" />
  <g>
      
      <g>
            <line x1="124" y1="176" x2="164" y2="176" stroke="#c7cbd1" stroke-width="2.6" stroke-linecap="round" />
            <line x1="124" y1="176" x2="120" y2="186" stroke="#c7cbd1" stroke-width="2.4" stroke-linecap="round" />
            <line x1="164" y1="176" x2="168" y2="186" stroke="#c7cbd1" stroke-width="2.4" stroke-linecap="round" />
            <line x1="142" y1="176" x2="142" y2="186" stroke="#c7cbd1" stroke-width="2.4" stroke-linecap="round" />
            <circle cx="169" cy="170" r="6" fill="#c7cbd1" />
            <path d="M120 186 q 50 16 56 0" stroke="#39ff73" stroke-width="1.8" fill="none" stroke-dasharray="3 3" />
          </g>
      
      <g>
    <rect x="130" y="57" width="147.2" height="19" rx="9.5" fill="#39ff73" fill-opacity="0.14" stroke="#39ff73" stroke-opacity="0.5" />
    <text x="203.6" y="71" text-anchor="middle" fill="#39ff73" font-family="Nunito, sans-serif" font-size="10" font-weight="800" letter-spacing="0.03em">STRICT FORM TO FAILURE</text>
  </g>
    </g>
  <text x="180" y="220" text-anchor="middle" fill="#c7cbd1" font-family="Nunito, -apple-system, sans-serif" font-size="12" font-weight="800" letter-spacing="0.04em">STRICT FORM TO FAILURE</text>
</svg>