<svg width="360" height="240" viewBox="0 0 360 240" fill="none" xmlns="http://www.w3.org/2000/svg" role="img" aria-label="one v one close down diagram">
  <defs>
  <marker id="arrowGreen" viewBox="0 0 10 10" refX="8" refY="5" markerWidth="7" markerHeight="7" orient="auto-start-reverse">
    <path d="M0,0 L10,5 L0,10 Z" fill="#39ff73" />
  </marker>
  <marker id="arrowAmber" viewBox="0 0 10 10" refX="8" refY="5" markerWidth="7" markerHeight="7" orient="auto-start-reverse">
    <path d="M0,0 L10,5 L0,10 Z" fill="#ff9d4d" />
  </marker>
  <marker id="arrowMute" viewBox="0 0 10 10" refX="8" refY="5" markerWidth="6" markerHeight="6" orient="auto-start-reverse">
    <path d="M0,0 L10,5 L0,10 Z" fill="#9aa1a9" />
  </marker></defs>
  <rect x="0.5" y="0.5" width="359" height="239" rx="16" fill="#101216" stroke="#262a30" />
  <rect x="14" y="14" width="332" height="184" rx="12" fill="#15181c" stroke="#262a30" stroke-width="1" />
  <g>
      <rect x="110" y="76" width="96" height="96" fill="#9aa1a9" fill-opacity="0.08" stroke="#9aa1a9" stroke-width="1.6" stroke-dasharray="5 4" rx="3" />
      <g>
    <path d="M110 63.2 L114.4 76 L105.6 76 Z" fill="#ff9d4d" opacity="0.92" />
    <rect x="104.1" y="76" width="11.8" height="1.92" rx="1.2" fill="#ff9d4d" opacity="0.6" />
  </g><g>
    <path d="M206 63.2 L210.4 76 L201.6 76 Z" fill="#ff9d4d" opacity="0.92" />
    <rect x="200.1" y="76" width="11.8" height="1.92" rx="1.2" fill="#ff9d4d" opacity="0.6" />
  </g><g>
    <path d="M110 159.2 L114.4 172 L105.6 172 Z" fill="#ff9d4d" opacity="0.92" />
    <rect x="104.1" y="172" width="11.8" height="1.92" rx="1.2" fill="#ff9d4d" opacity="0.6" />
  </g><g>
    <path d="M206 159.2 L210.4 172 L201.6 172 Z" fill="#ff9d4d" opacity="0.92" />
    <rect x="200.1" y="172" width="11.8" height="1.92" rx="1.2" fill="#ff9d4d" opacity="0.6" />
  </g>
      <g>
    <circle cx="152" cy="117" r="6.4" fill="#c7cbd1" />
    
      <line x1="152" y1="126" x2="150" y2="137" stroke="#c7cbd1" stroke-width="2.4" stroke-linecap="round" />
      <line x1="150" y1="131" x2="160" y2="128" stroke="#c7cbd1" stroke-width="2.2" stroke-linecap="round" />
      <line x1="150" y1="137" x2="143" y2="149" stroke="#c7cbd1" stroke-width="2.4" stroke-linecap="round" />
      <line x1="150" y1="137" x2="158" y2="150" stroke="#c7cbd1" stroke-width="2.4" stroke-linecap="round" />
    <text x="152" y="162" text-anchor="middle" fill="#9aa1a9" font-family="Nunito, sans-serif" font-size="9" font-weight="800">You</text>
  </g>
      <g>
    <circle cx="166" cy="142" r="6.5" fill="#c7cbd1" />
    <path d="M162.75 140.7 l3.25 -2.9250000000000003 l3.25 2.9250000000000003 l-1.3 3.575 h-3.9 Z" fill="#101216" opacity="0.55" />
  </g>
      <g>
    <circle cx="192" cy="111" r="6.4" fill="#ff9d4d" />
    
      <line x1="192" y1="120" x2="194" y2="131" stroke="#ff9d4d" stroke-width="2.4" stroke-linecap="round" />
      <line x1="194" y1="125" x2="184" y2="122" stroke="#ff9d4d" stroke-width="2.2" stroke-linecap="round" />
      <line x1="194" y1="131" x2="201" y2="143" stroke="#ff9d4d" stroke-width="2.4" stroke-linecap="round" />
      <line x1="194" y1="131" x2="186" y2="144" stroke="#ff9d4d" stroke-width="2.4" stroke-linecap="round" />
    <text x="192" y="156" text-anchor="middle" fill="#9aa1a9" font-family="Nunito, sans-serif" font-size="9" font-weight="800">Partner</text>
  </g>
      <g>
    <rect x="124" y="49" width="177.7" height="19" rx="9.5" fill="#39ff73" fill-opacity="0.14" stroke="#39ff73" stroke-opacity="0.5" />
    <text x="212.85" y="63" text-anchor="middle" fill="#39ff73" font-family="Nunito, sans-serif" font-size="10" font-weight="800" letter-spacing="0.03em">CLOSE DOWN — SHOW THEM AWAY</text>
  </g>
      <path d="M172 130 a 18 18 0 1 1 -2 -10" stroke="#39ff73" stroke-width="1.8" fill="none" stroke-dasharray="3 3" marker-end="url(#arrowGreen)" opacity="0.8" />
    </g>
  <text x="180" y="220" text-anchor="middle" fill="#c7cbd1" font-family="Nunito, -apple-system, sans-serif" font-size="12" font-weight="800" letter-spacing="0.04em">CLOSE DOWN — SHOW THEM AWAY</text>
</svg>