<svg width="360" height="240" viewBox="0 0 360 240" fill="none" xmlns="http://www.w3.org/2000/svg" role="img" aria-label="plank hold diagram">
  <defs>
  <marker id="arrowGreen" viewBox="0 0 10 10" refX="8" refY="5" markerWidth="7" markerHeight="7" orient="auto-start-reverse">
    <path d="M0,0 L10,5 L0,10 Z" fill="#39ff73" />
  </marker>
  <marker id="arrowAmber" viewBox="0 0 10 10" refX="8" refY="5" markerWidth="7" markerHeight="7" orient="auto-start-reverse">
    <path d="M0,0 L10,5 L0,10 Z" fill="#ff9d4d" />
  </marker>
  <marker id="arrowMute" viewBox="0 0 10 10" refX="8" refY="5" markerWidth="6" markerHeight="6" orient="auto-start-reverse">
    <path d="M0,0 L10,5 L0,10 Z" fill="#9aa1a9" />
  </marker></defs>
  <rect x="0.5" y="0.5" width="359" height="239" rx="16" fill="#101216" stroke="#262a30" />
  <rect x="14" y="14" width="332" height="184" rx="12" fill="#15181c" stroke="#262a30" stroke-width="1" />
  <g>
      
      <g>
      <line x1="98" y1="168" x2="136" y2="168" stroke="#c7cbd1" stroke-width="2.6" stroke-linecap="round" />
      <line x1="98" y1="168" x2="94" y2="178" stroke="#c7cbd1" stroke-width="2.4" stroke-linecap="round" />
      <line x1="136" y1="168" x2="142" y2="178" stroke="#c7cbd1" stroke-width="2.4" stroke-linecap="round" />
      <line x1="104" y1="168" x2="101" y2="178" stroke="#c7cbd1" stroke-width="2.4" stroke-linecap="round" />
      <circle cx="141" cy="162" r="6" fill="#c7cbd1" />
      <text x="116" y="192" text-anchor="middle" fill="#9aa1a9" font-family="Nunito, sans-serif" font-size="9" font-weight="800">Hold straight</text>
    </g>
      <g>
    <circle cx="268" cy="110" r="34" fill="none" stroke="#262a30" stroke-width="6" />
    <circle cx="268" cy="110" r="34" fill="none" stroke="#39ff73" stroke-width="6" stroke-linecap="round"
      stroke-dasharray="132.44954627534568 213.62830044410595" transform="rotate(-90 268 110)" />
    <text x="268" y="114" text-anchor="middle" fill="#c7cbd1" font-family="'IBM Plex Mono', monospace" font-size="12" font-weight="800">5:00</text>
  </g>
      <g>
    <rect x="190" y="163" width="147.2" height="19" rx="9.5" fill="#ff9d4d" fill-opacity="0.14" stroke="#ff9d4d" stroke-opacity="0.5" />
    <text x="263.6" y="177" text-anchor="middle" fill="#ff9d4d" font-family="Nunito, sans-serif" font-size="10" font-weight="800" letter-spacing="0.03em">HOLD UNTIL FORM BREAKS</text>
  </g>
    </g>
  <text x="180" y="220" text-anchor="middle" fill="#c7cbd1" font-family="Nunito, -apple-system, sans-serif" font-size="12" font-weight="800" letter-spacing="0.04em">PLANK HOLD</text>
</svg>