<svg width="360" height="240" viewBox="0 0 360 240" fill="none" xmlns="http://www.w3.org/2000/svg" role="img" aria-label="poke tackle timing diagram">
  <defs>
  <marker id="arrowGreen" viewBox="0 0 10 10" refX="8" refY="5" markerWidth="7" markerHeight="7" orient="auto-start-reverse">
    <path d="M0,0 L10,5 L0,10 Z" fill="#39ff73" />
  </marker>
  <marker id="arrowAmber" viewBox="0 0 10 10" refX="8" refY="5" markerWidth="7" markerHeight="7" orient="auto-start-reverse">
    <path d="M0,0 L10,5 L0,10 Z" fill="#ff9d4d" />
  </marker>
  <marker id="arrowMute" viewBox="0 0 10 10" refX="8" refY="5" markerWidth="6" markerHeight="6" orient="auto-start-reverse">
    <path d="M0,0 L10,5 L0,10 Z" fill="#9aa1a9" />
  </marker></defs>
  <rect x="0.5" y="0.5" width="359" height="239" rx="16" fill="#101216" stroke="#262a30" />
  <rect x="14" y="14" width="332" height="184" rx="12" fill="#15181c" stroke="#262a30" stroke-width="1" />
  <g>
      <g>
    <path d="M80 135.6 L84.95 150 L75.05 150 Z" fill="#9aa1a9" opacity="0.92" />
    <rect x="73.55" y="150" width="12.9" height="2.16" rx="1.2" fill="#9aa1a9" opacity="0.6" />
  </g><g>
    <path d="M280 135.6 L284.95 150 L275.05 150 Z" fill="#9aa1a9" opacity="0.92" />
    <rect x="273.55" y="150" width="12.9" height="2.16" rx="1.2" fill="#9aa1a9" opacity="0.6" />
  </g>
      <line x1="80" y1="152" x2="280" y2="152" stroke="#4a4f57" stroke-width="1.4" stroke-dasharray="3 4" />
      <g>
    <circle cx="250" cy="115" r="6.4" fill="#ff9d4d" />
    
      <line x1="250" y1="124" x2="252" y2="135" stroke="#ff9d4d" stroke-width="2.4" stroke-linecap="round" />
      <line x1="252" y1="129" x2="242" y2="126" stroke="#ff9d4d" stroke-width="2.2" stroke-linecap="round" />
      <line x1="252" y1="135" x2="259" y2="147" stroke="#ff9d4d" stroke-width="2.4" stroke-linecap="round" />
      <line x1="252" y1="135" x2="244" y2="148" stroke="#ff9d4d" stroke-width="2.4" stroke-linecap="round" />
    <text x="250" y="160" text-anchor="middle" fill="#9aa1a9" font-family="Nunito, sans-serif" font-size="9" font-weight="800">Partner</text>
  </g>
      <g>
    <circle cx="266" cy="144" r="6" fill="#c7cbd1" />
    <path d="M263 142.8 l3 -2.7 l3 2.7 l-1.2000000000000002 3.3000000000000003 h-3.5999999999999996 Z" fill="#101216" opacity="0.55" />
  </g>
      <g>
    <circle cx="136" cy="115" r="6.4" fill="#c7cbd1" />
    
      <line x1="136" y1="124" x2="138" y2="135" stroke="#c7cbd1" stroke-width="2.4" stroke-linecap="round" />
      <line x1="138" y1="129" x2="128" y2="126" stroke="#c7cbd1" stroke-width="2.2" stroke-linecap="round" />
      <line x1="138" y1="135" x2="145" y2="147" stroke="#c7cbd1" stroke-width="2.4" stroke-linecap="round" />
      <line x1="138" y1="135" x2="130" y2="148" stroke="#c7cbd1" stroke-width="2.4" stroke-linecap="round" />
    <text x="136" y="160" text-anchor="middle" fill="#9aa1a9" font-family="Nunito, sans-serif" font-size="9" font-weight="800">You</text>
  </g>
      <path d="M244 136 L150 136" stroke="#ff9d4d" stroke-width="2.2" fill="none" stroke-linecap="round" stroke-dasharray="5 4" marker-end="url(#arrowAmber)" />
      <path d="M150 144 Q 202 152 254 148" stroke="#39ff73" stroke-width="2.2" fill="none" stroke-linecap="round"  marker-end="url(#arrowGreen)" />
      <g>
    <rect x="146" y="57" width="147.2" height="19" rx="9.5" fill="#39ff73" fill-opacity="0.14" stroke="#39ff73" stroke-opacity="0.5" />
    <text x="219.6" y="71" text-anchor="middle" fill="#39ff73" font-family="Nunito, sans-serif" font-size="10" font-weight="800" letter-spacing="0.03em">POKE WHEN TOUCH DRIFTS</text>
  </g>
    </g>
  <text x="180" y="220" text-anchor="middle" fill="#c7cbd1" font-family="Nunito, -apple-system, sans-serif" font-size="12" font-weight="800" letter-spacing="0.04em">POKE WHEN TOUCH DRIFTS</text>
</svg>