<svg width="360" height="240" viewBox="0 0 360 240" fill="none" xmlns="http://www.w3.org/2000/svg" role="img" aria-label="pro agility shuttle diagram">
  <defs>
  <marker id="arrowGreen" viewBox="0 0 10 10" refX="8" refY="5" markerWidth="7" markerHeight="7" orient="auto-start-reverse">
    <path d="M0,0 L10,5 L0,10 Z" fill="#39ff73" />
  </marker>
  <marker id="arrowAmber" viewBox="0 0 10 10" refX="8" refY="5" markerWidth="7" markerHeight="7" orient="auto-start-reverse">
    <path d="M0,0 L10,5 L0,10 Z" fill="#ff9d4d" />
  </marker>
  <marker id="arrowMute" viewBox="0 0 10 10" refX="8" refY="5" markerWidth="6" markerHeight="6" orient="auto-start-reverse">
    <path d="M0,0 L10,5 L0,10 Z" fill="#9aa1a9" />
  </marker></defs>
  <rect x="0.5" y="0.5" width="359" height="239" rx="16" fill="#101216" stroke="#262a30" />
  <rect x="14" y="14" width="332" height="184" rx="12" fill="#15181c" stroke="#262a30" stroke-width="1" />
  <g>
      <g>
    <path d="M70 134 L75.5 150 L64.5 150 Z" fill="#9aa1a9" opacity="0.92" />
    <rect x="63" y="150" width="14" height="2.4" rx="1.2" fill="#9aa1a9" opacity="0.6" />
  </g><g>
    <path d="M290 134 L295.5 150 L284.5 150 Z" fill="#ff9d4d" opacity="0.92" />
    <rect x="283" y="150" width="14" height="2.4" rx="1.2" fill="#ff9d4d" opacity="0.6" />
  </g>
      <text x="70" y="178" text-anchor="middle" fill="#9aa1a9" font-family="Nunito, sans-serif" font-size="9" font-weight="800">A</text>
      <text x="290" y="178" text-anchor="middle" fill="#9aa1a9" font-family="Nunito, sans-serif" font-size="9" font-weight="800">B</text>
      <path d="M84 146 a 10 10 0 1 1 -1 -10" stroke="#39ff73" stroke-width="2" fill="none" marker-end="url(#arrowGreen)" />
           <path d="M86 148 L274 148" stroke="#39ff73" stroke-width="2.4" fill="none" stroke-linecap="round"  marker-end="url(#arrowGreen)" />
      <g>
    <circle cx="74" cy="99" r="6.4" fill="#c7cbd1" />
    
      <line x1="74" y1="105" x2="77" y2="118" stroke="#c7cbd1" stroke-width="2.4" stroke-linecap="round" />
      <line x1="77" y1="110" x2="66" y2="106" stroke="#c7cbd1" stroke-width="2.2" stroke-linecap="round" />
      <line x1="77" y1="110" x2="85" y2="116" stroke="#c7cbd1" stroke-width="2.2" stroke-linecap="round" />
      <line x1="77" y1="118" x2="67" y2="125" stroke="#c7cbd1" stroke-width="2.4" stroke-linecap="round" />
      <line x1="77" y1="118" x2="84" y2="132" stroke="#c7cbd1" stroke-width="2.4" stroke-linecap="round" />
    
  </g>
      
      
      <g>
    <line x1="70" y1="196" x2="290" y2="196" stroke="#4a4f57" stroke-width="1.4" stroke-dasharray="2 3" />
    <line x1="70" y1="192" x2="70" y2="200" stroke="#4a4f57" stroke-width="1.4" />
    <line x1="290" y1="192" x2="290" y2="200" stroke="#4a4f57" stroke-width="1.4" />
    <text x="180" y="188" text-anchor="middle" fill="#9aa1a9" font-family="'IBM Plex Mono', monospace" font-size="10" font-weight="600">5 - 10 - 5 yards</text>
  </g>
      <g>
    <rect x="140" y="57" width="104.5" height="19" rx="9.5" fill="#ff9d4d" fill-opacity="0.14" stroke="#ff9d4d" stroke-opacity="0.5" />
    <text x="192.25" y="71" text-anchor="middle" fill="#ff9d4d" font-family="Nunito, sans-serif" font-size="10" font-weight="800" letter-spacing="0.03em">TOUCH EACH LINE</text>
  </g>
    </g>
  <text x="180" y="220" text-anchor="middle" fill="#c7cbd1" font-family="Nunito, -apple-system, sans-serif" font-size="12" font-weight="800" letter-spacing="0.04em">TOUCH EACH LINE</text>
</svg>