<svg width="360" height="240" viewBox="0 0 360 240" fill="none" xmlns="http://www.w3.org/2000/svg" role="img" aria-label="single leg balance hold diagram">
  <defs>
  <marker id="arrowGreen" viewBox="0 0 10 10" refX="8" refY="5" markerWidth="7" markerHeight="7" orient="auto-start-reverse">
    <path d="M0,0 L10,5 L0,10 Z" fill="#39ff73" />
  </marker>
  <marker id="arrowAmber" viewBox="0 0 10 10" refX="8" refY="5" markerWidth="7" markerHeight="7" orient="auto-start-reverse">
    <path d="M0,0 L10,5 L0,10 Z" fill="#ff9d4d" />
  </marker>
  <marker id="arrowMute" viewBox="0 0 10 10" refX="8" refY="5" markerWidth="6" markerHeight="6" orient="auto-start-reverse">
    <path d="M0,0 L10,5 L0,10 Z" fill="#9aa1a9" />
  </marker></defs>
  <rect x="0.5" y="0.5" width="359" height="239" rx="16" fill="#101216" stroke="#262a30" />
  <rect x="14" y="14" width="332" height="184" rx="12" fill="#15181c" stroke="#262a30" stroke-width="1" />
  <g>
      
      <g>
    <circle cx="120" cy="147" r="6.4" fill="#c7cbd1" />
    
      <line x1="120" y1="152" x2="120" y2="166" stroke="#c7cbd1" stroke-width="2.4" stroke-linecap="round" />
      <line x1="120" y1="159" x2="112" y2="155" stroke="#c7cbd1" stroke-width="2.2" stroke-linecap="round" />
      <line x1="120" y1="159" x2="128" y2="155" stroke="#c7cbd1" stroke-width="2.2" stroke-linecap="round" />
      <line x1="120" y1="166" x2="121" y2="180" stroke="#c7cbd1" stroke-width="2.4" stroke-linecap="round" />
      <path d="M114 164 q 6 -8 12 0" stroke="#c7cbd1" stroke-width="2.2" fill="none" stroke-linecap="round" />
    <text x="120" y="192" text-anchor="middle" fill="#9aa1a9" font-family="Nunito, sans-serif" font-size="9" font-weight="800">Eyes forward, knees soft</text>
  </g>
      <g>
    <circle cx="268" cy="110" r="34" fill="none" stroke="#262a30" stroke-width="6" />
    <circle cx="268" cy="110" r="34" fill="none" stroke="#39ff73" stroke-width="6" stroke-linecap="round"
      stroke-dasharray="85.45132017764239 213.62830044410595" transform="rotate(-90 268 110)" />
    <text x="268" y="114" text-anchor="middle" fill="#c7cbd1" font-family="'IBM Plex Mono', monospace" font-size="12" font-weight="800">75s</text>
  </g>
      <g>
    <rect x="190" y="163" width="147.2" height="19" rx="9.5" fill="#ff9d4d" fill-opacity="0.14" stroke="#ff9d4d" stroke-opacity="0.5" />
    <text x="263.6" y="177" text-anchor="middle" fill="#ff9d4d" font-family="Nunito, sans-serif" font-size="10" font-weight="800" letter-spacing="0.03em">HOLD UNTIL FORM BREAKS</text>
  </g>
    </g>
  <text x="180" y="220" text-anchor="middle" fill="#c7cbd1" font-family="Nunito, -apple-system, sans-serif" font-size="12" font-weight="800" letter-spacing="0.04em">SINGLE LEG BALANCE HOLD</text>
</svg>