<svg width="360" height="240" viewBox="0 0 360 240" fill="none" xmlns="http://www.w3.org/2000/svg" role="img" aria-label="wall sit hold diagram">
  <defs>
  <marker id="arrowGreen" viewBox="0 0 10 10" refX="8" refY="5" markerWidth="7" markerHeight="7" orient="auto-start-reverse">
    <path d="M0,0 L10,5 L0,10 Z" fill="#39ff73" />
  </marker>
  <marker id="arrowAmber" viewBox="0 0 10 10" refX="8" refY="5" markerWidth="7" markerHeight="7" orient="auto-start-reverse">
    <path d="M0,0 L10,5 L0,10 Z" fill="#ff9d4d" />
  </marker>
  <marker id="arrowMute" viewBox="0 0 10 10" refX="8" refY="5" markerWidth="6" markerHeight="6" orient="auto-start-reverse">
    <path d="M0,0 L10,5 L0,10 Z" fill="#9aa1a9" />
  </marker></defs>
  <rect x="0.5" y="0.5" width="359" height="239" rx="16" fill="#101216" stroke="#262a30" />
  <rect x="14" y="14" width="332" height="184" rx="12" fill="#15181c" stroke="#262a30" stroke-width="1" />
  <g>
      <g>
    <rect x="190" y="96" width="14" height="80" fill="#101216" stroke="#9aa1a9" stroke-width="2" rx="2" />
    <line x1="190" y1="96" x2="204" y2="96" stroke="#4a4f57" stroke-width="1" /><line x1="193.5" y1="96" x2="193.5" y2="122.66666666666667" stroke="#4a4f57" stroke-width="1" /><line x1="197" y1="96" x2="197" y2="122.66666666666667" stroke="#4a4f57" stroke-width="1" /><line x1="200.5" y1="96" x2="200.5" y2="122.66666666666667" stroke="#4a4f57" stroke-width="1" /><line x1="190" y1="122.66666666666667" x2="204" y2="122.66666666666667" stroke="#4a4f57" stroke-width="1" /><line x1="191.75" y1="122.66666666666667" x2="191.75" y2="149.33333333333334" stroke="#4a4f57" stroke-width="1" /><line x1="195.25" y1="122.66666666666667" x2="195.25" y2="149.33333333333334" stroke="#4a4f57" stroke-width="1" /><line x1="198.75" y1="122.66666666666667" x2="198.75" y2="149.33333333333334" stroke="#4a4f57" stroke-width="1" /><line x1="202.25" y1="122.66666666666667" x2="202.25" y2="149.33333333333334" stroke="#4a4f57" stroke-width="1" /><line x1="190" y1="149.33333333333334" x2="204" y2="149.33333333333334" stroke="#4a4f57" stroke-width="1" /><line x1="193.5" y1="149.33333333333334" x2="193.5" y2="176" stroke="#4a4f57" stroke-width="1" /><line x1="197" y1="149.33333333333334" x2="197" y2="176" stroke="#4a4f57" stroke-width="1" /><line x1="200.5" y1="149.33333333333334" x2="200.5" y2="176" stroke="#4a4f57" stroke-width="1" />
  </g>
      <g>
      <line x1="120" y1="144" x2="120" y2="160" stroke="#c7cbd1" stroke-width="2.6" stroke-linecap="round" />
      <line x1="120" y1="160" x2="134" y2="160" stroke="#c7cbd1" stroke-width="2.4" stroke-linecap="round" />
      <line x1="134" y1="160" x2="134" y2="178" stroke="#c7cbd1" stroke-width="2.4" stroke-linecap="round" />
      <circle cx="120" cy="138" r="6" fill="#c7cbd1" />
      <line x1="120" y1="148" x2="110" y2="154" stroke="#c7cbd1" stroke-width="2.2" stroke-linecap="round" />
      <text x="126" y="192" text-anchor="middle" fill="#9aa1a9" font-family="Nunito, sans-serif" font-size="9" font-weight="800">90°  knees over ankles</text>
    </g>
      <g>
    <circle cx="268" cy="110" r="34" fill="none" stroke="#262a30" stroke-width="6" />
    <circle cx="268" cy="110" r="34" fill="none" stroke="#39ff73" stroke-width="6" stroke-linecap="round"
      stroke-dasharray="106.81415022205297 213.62830044410595" transform="rotate(-90 268 110)" />
    <text x="268" y="114" text-anchor="middle" fill="#c7cbd1" font-family="'IBM Plex Mono', monospace" font-size="12" font-weight="800">4:30</text>
  </g>
      <g>
    <rect x="190" y="163" width="147.2" height="19" rx="9.5" fill="#ff9d4d" fill-opacity="0.14" stroke="#ff9d4d" stroke-opacity="0.5" />
    <text x="263.6" y="177" text-anchor="middle" fill="#ff9d4d" font-family="Nunito, sans-serif" font-size="10" font-weight="800" letter-spacing="0.03em">HOLD UNTIL FORM BREAKS</text>
  </g>
    </g>
  <text x="180" y="220" text-anchor="middle" fill="#c7cbd1" font-family="Nunito, -apple-system, sans-serif" font-size="12" font-weight="800" letter-spacing="0.04em">WALL SIT HOLD</text>
</svg>