<svg width="360" height="240" viewBox="0 0 360 240" fill="none" xmlns="http://www.w3.org/2000/svg" role="img" aria-label="weak foot juggling diagram">
  <defs>
  <marker id="arrowGreen" viewBox="0 0 10 10" refX="8" refY="5" markerWidth="7" markerHeight="7" orient="auto-start-reverse">
    <path d="M0,0 L10,5 L0,10 Z" fill="#39ff73" />
  </marker>
  <marker id="arrowAmber" viewBox="0 0 10 10" refX="8" refY="5" markerWidth="7" markerHeight="7" orient="auto-start-reverse">
    <path d="M0,0 L10,5 L0,10 Z" fill="#ff9d4d" />
  </marker>
  <marker id="arrowMute" viewBox="0 0 10 10" refX="8" refY="5" markerWidth="6" markerHeight="6" orient="auto-start-reverse">
    <path d="M0,0 L10,5 L0,10 Z" fill="#9aa1a9" />
  </marker></defs>
  <rect x="0.5" y="0.5" width="359" height="239" rx="16" fill="#101216" stroke="#262a30" />
  <rect x="14" y="14" width="332" height="184" rx="12" fill="#15181c" stroke="#262a30" stroke-width="1" />
  <g>
      <g>
    <circle cx="180" cy="151" r="6.4" fill="#c7cbd1" />
    
      <line x1="180" y1="156" x2="180" y2="170" stroke="#c7cbd1" stroke-width="2.4" stroke-linecap="round" />
      <line x1="180" y1="163" x2="172" y2="159" stroke="#c7cbd1" stroke-width="2.2" stroke-linecap="round" />
      <line x1="180" y1="163" x2="188" y2="159" stroke="#c7cbd1" stroke-width="2.2" stroke-linecap="round" />
      <line x1="180" y1="170" x2="181" y2="184" stroke="#c7cbd1" stroke-width="2.4" stroke-linecap="round" />
      <path d="M174 168 q 6 -8 12 0" stroke="#c7cbd1" stroke-width="2.2" fill="none" stroke-linecap="round" />
    <text x="180" y="196" text-anchor="middle" fill="#9aa1a9" font-family="Nunito, sans-serif" font-size="9" font-weight="800">Weak foot only</text>
  </g>
      <g>
    <circle cx="180" cy="130" r="7" fill="#c7cbd1" />
    <path d="M176.5 128.6 l3.5 -3.15 l3.5 3.15 l-1.4000000000000001 3.8500000000000005 h-4.2 Z" fill="#101216" opacity="0.55" />
  </g>
      <path d="M166 138 q 14 -22 28 0" stroke="#39ff73" stroke-width="2" fill="none" stroke-dasharray="4 4" />
      <path d="M160 148 q 20 -34 40 0" stroke="rgba(57,255,115,0.45)" stroke-width="1.6" fill="none" stroke-dasharray="3 4" />
      <g>
    <rect x="116" y="57" width="165.5" height="19" rx="9.5" fill="#ff9d4d" fill-opacity="0.14" stroke="#ff9d4d" stroke-opacity="0.5" />
    <text x="198.75" y="71" text-anchor="middle" fill="#ff9d4d" font-family="Nunito, sans-serif" font-size="10" font-weight="800" letter-spacing="0.03em">WEAK FOOT — COUNT TOUCHES</text>
  </g>
    </g>
  <text x="180" y="220" text-anchor="middle" fill="#c7cbd1" font-family="Nunito, -apple-system, sans-serif" font-size="12" font-weight="800" letter-spacing="0.04em">WEAK FOOT — COUNT TOUCHES</text>
</svg>