<svg width="360" height="240" viewBox="0 0 360 240" fill="none" xmlns="http://www.w3.org/2000/svg" role="img" aria-label="weak foot wall routine diagram">
  <defs>
  <marker id="arrowGreen" viewBox="0 0 10 10" refX="8" refY="5" markerWidth="7" markerHeight="7" orient="auto-start-reverse">
    <path d="M0,0 L10,5 L0,10 Z" fill="#39ff73" />
  </marker>
  <marker id="arrowAmber" viewBox="0 0 10 10" refX="8" refY="5" markerWidth="7" markerHeight="7" orient="auto-start-reverse">
    <path d="M0,0 L10,5 L0,10 Z" fill="#ff9d4d" />
  </marker>
  <marker id="arrowMute" viewBox="0 0 10 10" refX="8" refY="5" markerWidth="6" markerHeight="6" orient="auto-start-reverse">
    <path d="M0,0 L10,5 L0,10 Z" fill="#9aa1a9" />
  </marker></defs>
  <rect x="0.5" y="0.5" width="359" height="239" rx="16" fill="#101216" stroke="#262a30" />
  <rect x="14" y="14" width="332" height="184" rx="12" fill="#15181c" stroke="#262a30" stroke-width="1" />
  <g>
      <g>
    <rect x="250" y="50" width="18" height="96" fill="#101216" stroke="#9aa1a9" stroke-width="2" rx="2" />
    <line x1="250" y1="50" x2="268" y2="50" stroke="#4a4f57" stroke-width="1" /><line x1="254.5" y1="50" x2="254.5" y2="82" stroke="#4a4f57" stroke-width="1" /><line x1="259" y1="50" x2="259" y2="82" stroke="#4a4f57" stroke-width="1" /><line x1="263.5" y1="50" x2="263.5" y2="82" stroke="#4a4f57" stroke-width="1" /><line x1="250" y1="82" x2="268" y2="82" stroke="#4a4f57" stroke-width="1" /><line x1="252.25" y1="82" x2="252.25" y2="114" stroke="#4a4f57" stroke-width="1" /><line x1="256.75" y1="82" x2="256.75" y2="114" stroke="#4a4f57" stroke-width="1" /><line x1="261.25" y1="82" x2="261.25" y2="114" stroke="#4a4f57" stroke-width="1" /><line x1="265.75" y1="82" x2="265.75" y2="114" stroke="#4a4f57" stroke-width="1" /><line x1="250" y1="114" x2="268" y2="114" stroke="#4a4f57" stroke-width="1" /><line x1="254.5" y1="114" x2="254.5" y2="146" stroke="#4a4f57" stroke-width="1" /><line x1="259" y1="114" x2="259" y2="146" stroke="#4a4f57" stroke-width="1" /><line x1="263.5" y1="114" x2="263.5" y2="146" stroke="#4a4f57" stroke-width="1" />
  </g>
      
      <g>
    <circle cx="90" cy="129" r="6.4" fill="#c7cbd1" />
    
      <line x1="90" y1="134" x2="90" y2="148" stroke="#c7cbd1" stroke-width="2.4" stroke-linecap="round" />
      <line x1="90" y1="139" x2="97" y2="146" stroke="#c7cbd1" stroke-width="2.2" stroke-linecap="round" />
      <line x1="90" y1="148" x2="85" y2="162" stroke="#c7cbd1" stroke-width="2.4" stroke-linecap="round" />
      <line x1="90" y1="148" x2="97" y2="162" stroke="#c7cbd1" stroke-width="2.4" stroke-linecap="round" />
    <text x="90" y="174" text-anchor="middle" fill="#9aa1a9" font-family="Nunito, sans-serif" font-size="9" font-weight="800">You</text>
  </g>
      <g>
    <circle cx="116" cy="160" r="6.5" fill="#c7cbd1" />
    <path d="M112.75 158.7 l3.25 -2.9250000000000003 l3.25 2.9250000000000003 l-1.3 3.575 h-3.9 Z" fill="#101216" opacity="0.55" />
  </g>
      <path d="M120 156 Q 182 133 244 90" stroke="#39ff73" stroke-width="2.2" fill="none" stroke-linecap="round"  marker-end="url(#arrowGreen)" />
      <path d="M244 108 Q 175 114 106 148" stroke="#ff9d4d" stroke-width="2.2" fill="none" stroke-linecap="round" stroke-dasharray="5 4" marker-end="url(#arrowAmber)" />
      <g>
    <line x1="74" y1="188" x2="250" y2="188" stroke="#4a4f57" stroke-width="1.4" stroke-dasharray="2 3" />
    <line x1="74" y1="184" x2="74" y2="192" stroke="#4a4f57" stroke-width="1.4" />
    <line x1="250" y1="184" x2="250" y2="192" stroke="#4a4f57" stroke-width="1.4" />
    <text x="162" y="180" text-anchor="middle" fill="#9aa1a9" font-family="'IBM Plex Mono', monospace" font-size="10" font-weight="600">7 big steps</text>
  </g>
      <g>
    <rect x="190" y="51" width="135" height="19" rx="9.5" fill="#39ff73" fill-opacity="0.14" stroke="#39ff73" stroke-opacity="0.5" />
    <text x="257.5" y="65" text-anchor="middle" fill="#39ff73" font-family="Nunito, sans-serif" font-size="10" font-weight="800" letter-spacing="0.03em">60s — WEAK FOOT ONLY</text>
  </g>
    </g>
  <text x="180" y="220" text-anchor="middle" fill="#c7cbd1" font-family="Nunito, -apple-system, sans-serif" font-size="12" font-weight="800" letter-spacing="0.04em">60S — WEAK FOOT ONLY</text>
</svg>