<svg width="360" height="240" viewBox="0 0 360 240" fill="none" xmlns="http://www.w3.org/2000/svg" role="img" aria-label="yoyo intermittent level diagram">
  <defs>
  <marker id="arrowGreen" viewBox="0 0 10 10" refX="8" refY="5" markerWidth="7" markerHeight="7" orient="auto-start-reverse">
    <path d="M0,0 L10,5 L0,10 Z" fill="#39ff73" />
  </marker>
  <marker id="arrowAmber" viewBox="0 0 10 10" refX="8" refY="5" markerWidth="7" markerHeight="7" orient="auto-start-reverse">
    <path d="M0,0 L10,5 L0,10 Z" fill="#ff9d4d" />
  </marker>
  <marker id="arrowMute" viewBox="0 0 10 10" refX="8" refY="5" markerWidth="6" markerHeight="6" orient="auto-start-reverse">
    <path d="M0,0 L10,5 L0,10 Z" fill="#9aa1a9" />
  </marker></defs>
  <rect x="0.5" y="0.5" width="359" height="239" rx="16" fill="#101216" stroke="#262a30" />
  <rect x="14" y="14" width="332" height="184" rx="12" fill="#15181c" stroke="#262a30" stroke-width="1" />
  <g>
      <line x1="70" y1="150" x2="290" y2="150" stroke="#c7cbd1" stroke-width="2.4" />
      <line x1="70" y1="140" x2="70" y2="160" stroke="#c7cbd1" stroke-width="2.4" />
      <line x1="290" y1="140" x2="290" y2="160" stroke="#c7cbd1" stroke-width="2.4" />
      <line x1="180" y1="140" x2="180" y2="160" stroke="#4a4f57" stroke-width="1.6" stroke-dasharray="3 3" />
      <text x="70" y="176" text-anchor="middle" fill="#9aa1a9" font-family="Nunito, sans-serif" font-size="8" font-weight="800">20m</text>
      <text x="290" y="176" text-anchor="middle" fill="#9aa1a9" font-family="Nunito, sans-serif" font-size="8" font-weight="800">TURN</text>
      <g>
    <circle cx="100" cy="107" r="6.4" fill="#c7cbd1" />
    
      <line x1="100" y1="113" x2="103" y2="126" stroke="#c7cbd1" stroke-width="2.4" stroke-linecap="round" />
      <line x1="103" y1="118" x2="92" y2="114" stroke="#c7cbd1" stroke-width="2.2" stroke-linecap="round" />
      <line x1="103" y1="118" x2="111" y2="124" stroke="#c7cbd1" stroke-width="2.2" stroke-linecap="round" />
      <line x1="103" y1="126" x2="93" y2="133" stroke="#c7cbd1" stroke-width="2.4" stroke-linecap="round" />
      <line x1="103" y1="126" x2="110" y2="140" stroke="#c7cbd1" stroke-width="2.4" stroke-linecap="round" />
    
  </g>
      <path d="M120 122 L240 122" stroke="#39ff73" stroke-width="2.2" fill="none" stroke-linecap="round"  marker-end="url(#arrowGreen)" />
      <path d="M240 126 a 9 9 0 1 1 0.4 8" stroke="#ff9d4d" stroke-width="2" fill="none" marker-end="url(#arrowAmber)" />
      <g>
    <rect x="140" y="59" width="171.6" height="19" rx="9.5" fill="#39ff73" fill-opacity="0.14" stroke="#39ff73" stroke-opacity="0.5" />
    <text x="225.8" y="73" text-anchor="middle" fill="#39ff73" font-family="Nunito, sans-serif" font-size="10" font-weight="800" letter-spacing="0.03em">SHUTTLE + 10s RECOVERY JOG</text>
  </g>
    </g>
  <text x="180" y="220" text-anchor="middle" fill="#c7cbd1" font-family="Nunito, -apple-system, sans-serif" font-size="12" font-weight="800" letter-spacing="0.04em">SHUTTLE + 10S RECOVERY JOG</text>
</svg>